<?xml version="1.0" encoding="utf-8"?>
<!-- Generator: Adobe Illustrator 22.0.1, SVG Export Plug-In . SVG Version: 6.00 Build 0)  -->
<svg version="1.1" xmlns="http://www.w3.org/2000/svg" xmlns:xlink="http://www.w3.org/1999/xlink" x="0px" y="0px"
	 viewBox="0 0 359.48 92.244" enable-background="new 0 0 359.48 92.244" xml:space="preserve">
<g id="Ebene_1">
	<g>
		<path fill="#21325D" d="M30.325,81.191c-0.101,0-0.2-0.03-0.285-0.089L6.293,64.649c-0.227-0.157-0.283-0.469-0.126-0.696
			l1.325-1.913c0.075-0.108,0.191-0.184,0.322-0.207c0.029-0.005,0.06-0.008,0.089-0.008c0.101,0,0.2,0.03,0.285,0.089
			l23.746,16.454c0.227,0.157,0.283,0.469,0.126,0.696l-1.324,1.912c-0.075,0.108-0.191,0.184-0.322,0.207
			C30.385,81.188,30.355,81.191,30.325,81.191z"/>
		<path fill="#FFFFFF" d="M7.904,62.324L31.65,78.779l-1.324,1.912L6.578,64.237L7.904,62.324 M7.904,61.324
			c-0.059,0-0.119,0.005-0.179,0.016c-0.261,0.047-0.492,0.196-0.643,0.414l-1.325,1.913c-0.314,0.454-0.201,1.077,0.253,1.391
			l23.747,16.453c0.168,0.117,0.367,0.178,0.57,0.178c0.06,0,0.119-0.005,0.179-0.016c0.261-0.047,0.492-0.197,0.643-0.415
			l1.324-1.912c0.314-0.454,0.201-1.077-0.253-1.391L8.473,61.502C8.305,61.386,8.106,61.324,7.904,61.324L7.904,61.324z"/>
	</g>
	<g>
		<path fill="#21325D" d="M37.729,24.911c-0.15,0-0.295-0.068-0.391-0.188c-0.111-0.14-0.14-0.328-0.075-0.494l8.013-20.406
			c0.065-0.167,0.215-0.285,0.392-0.312c0.024-0.003,0.05-0.005,0.074-0.005c0.15,0,0.295,0.068,0.391,0.188l13.667,17.142
			c0.111,0.14,0.14,0.328,0.075,0.494c-0.065,0.167-0.215,0.285-0.392,0.312l-21.68,3.265
			C37.779,24.909,37.753,24.911,37.729,24.911z"/>
		<path fill="#FFFFFF" d="M45.742,4.004l6.833,8.571l6.833,8.571L48.57,22.779l-10.84,1.632l4.006-10.203L45.742,4.004
			 M45.742,3.004c-0.049,0-0.099,0.004-0.149,0.011c-0.353,0.053-0.651,0.291-0.782,0.623l-4.007,10.203l-4.006,10.203
			c-0.131,0.333-0.074,0.71,0.149,0.989c0.191,0.24,0.48,0.377,0.782,0.377c0.049,0,0.099-0.004,0.149-0.011l10.84-1.632
			l10.839-1.633c0.353-0.053,0.651-0.291,0.782-0.623c0.131-0.333,0.074-0.71-0.149-0.989l-6.833-8.571l-6.833-8.571
			C46.332,3.141,46.044,3.004,45.742,3.004L45.742,3.004z"/>
	</g>
	<g>
		<path fill="#21325D" d="M35.063,26.125c-0.111,0-0.221-0.037-0.311-0.108l-17.17-13.632c-0.141-0.111-0.21-0.289-0.184-0.465
			c0.025-0.177,0.145-0.326,0.311-0.392L38.1,3.475c0.06-0.023,0.122-0.035,0.184-0.035c0.111,0,0.221,0.037,0.311,0.108
			c0.141,0.111,0.21,0.289,0.184,0.465l-3.221,21.685c-0.025,0.177-0.145,0.326-0.311,0.392
			C35.187,26.113,35.124,26.125,35.063,26.125z"/>
		<path fill="#FFFFFF" d="M38.283,3.94l-1.611,10.843l-1.61,10.842l-8.585-6.816l-8.584-6.816l10.195-4.027L38.283,3.94
			 M38.283,2.94c-0.124,0-0.248,0.023-0.367,0.07L27.721,7.036l-10.195,4.027c-0.332,0.131-0.569,0.43-0.622,0.783
			s0.087,0.708,0.367,0.93l8.584,6.816l8.585,6.816c0.18,0.143,0.4,0.217,0.622,0.217c0.124,0,0.248-0.023,0.367-0.07
			c0.332-0.131,0.569-0.43,0.622-0.783l1.61-10.842l1.611-10.843c0.052-0.353-0.088-0.708-0.367-0.93
			C38.725,3.014,38.506,2.94,38.283,2.94L38.283,2.94z"/>
	</g>
	<g>
		<path fill="#21325D" d="M67.904,48.881c-0.111,0-0.221-0.037-0.311-0.108L46.456,31.991c-0.141-0.111-0.21-0.289-0.184-0.465
			c0.025-0.177,0.145-0.326,0.311-0.392l25.103-9.914c0.06-0.023,0.122-0.035,0.184-0.035c0.111,0,0.221,0.037,0.311,0.108
			c0.141,0.111,0.21,0.289,0.184,0.465l-3.966,26.695c-0.025,0.177-0.145,0.326-0.311,0.392
			C68.028,48.87,67.965,48.881,67.904,48.881z"/>
		<path fill="#FFFFFF" d="M71.869,21.686l-1.984,13.348l-1.982,13.347l-10.568-8.391l-10.569-8.391l12.551-4.957L71.869,21.686
			 M71.869,20.686c-0.124,0-0.248,0.023-0.367,0.07L58.95,25.712L46.4,30.669c-0.332,0.131-0.569,0.43-0.622,0.783
			c-0.052,0.353,0.088,0.708,0.367,0.93l10.569,8.391l10.568,8.391c0.18,0.143,0.4,0.217,0.622,0.217
			c0.124,0,0.248-0.023,0.367-0.07c0.332-0.131,0.569-0.43,0.622-0.783l1.982-13.347l1.984-13.348
			c0.052-0.353-0.087-0.708-0.367-0.93C72.311,20.76,72.091,20.686,71.869,20.686L71.869,20.686z"/>
	</g>
	<g>
		<path fill="#21325D" d="M54.422,59.461c-0.033,0-0.067-0.003-0.101-0.011c-0.175-0.035-0.317-0.162-0.374-0.332l-4.744-14.294
			c-0.057-0.169-0.018-0.356,0.101-0.489c0.097-0.108,0.232-0.168,0.374-0.168c0.033,0,0.067,0.003,0.101,0.01l14.75,3.039
			c0.175,0.036,0.317,0.163,0.374,0.332c0.057,0.17,0.018,0.356-0.101,0.49L54.796,59.293
			C54.699,59.402,54.564,59.461,54.422,59.461z"/>
		<path fill="#FFFFFF" d="M49.678,44.667l7.375,1.519l7.375,1.519l-5.004,5.627l-5.003,5.628l-2.373-7.147L49.678,44.667
			 M49.678,43.667c-0.282,0-0.555,0.12-0.747,0.336c-0.237,0.267-0.314,0.64-0.202,0.979l2.372,7.147l2.373,7.147
			c0.113,0.339,0.398,0.592,0.747,0.664c0.067,0.014,0.135,0.021,0.202,0.021c0.282,0,0.556-0.12,0.747-0.336l5.003-5.628
			l5.004-5.627c0.237-0.267,0.314-0.64,0.202-0.979c-0.113-0.339-0.397-0.592-0.747-0.664l-7.375-1.519l-7.375-1.519
			C49.813,43.674,49.745,43.667,49.678,43.667L49.678,43.667z"/>
	</g>
	<g>
		<path fill="#21325D" d="M39.178,46.337c-0.134,0-0.265-0.054-0.36-0.153c-0.124-0.129-0.17-0.314-0.12-0.485l4.168-14.473
			c0.05-0.171,0.187-0.304,0.36-0.347c0.04-0.01,0.08-0.015,0.12-0.015c0.134,0,0.265,0.054,0.36,0.153l10.449,10.845
			c0.124,0.129,0.17,0.314,0.12,0.485c-0.05,0.172-0.187,0.304-0.36,0.347l-14.617,3.627C39.258,46.332,39.218,46.337,39.178,46.337
			z"/>
		<path fill="#FFFFFF" d="M43.345,31.364l5.225,5.423l5.225,5.422l-7.309,1.814l-7.308,1.814l2.083-7.236L43.345,31.364
			 M43.345,30.364c-0.08,0-0.161,0.01-0.241,0.029c-0.347,0.086-0.621,0.351-0.72,0.694L40.3,38.324l-2.083,7.236
			c-0.099,0.343-0.007,0.713,0.241,0.971c0.191,0.198,0.452,0.306,0.72,0.306c0.08,0,0.161-0.01,0.241-0.029l7.308-1.814
			l7.309-1.814c0.347-0.086,0.621-0.351,0.72-0.694c0.099-0.343,0.007-0.713-0.241-0.971l-5.225-5.422l-5.225-5.423
			C43.875,30.472,43.614,30.364,43.345,30.364L43.345,30.364z"/>
	</g>
	<g>
		<path fill="#21325D" d="M35.463,41.68c-0.178-0.011-0.337-0.116-0.417-0.275l-6.734-13.471c-0.08-0.16-0.068-0.35,0.03-0.499
			c0.093-0.141,0.25-0.225,0.417-0.225c0.01,0,15.063,0.903,15.063,0.903c0.178,0.011,0.337,0.116,0.417,0.275
			s0.068,0.35-0.03,0.499L35.91,41.456c-0.093,0.141-0.25,0.225-0.417,0.225C35.484,41.681,35.474,41.68,35.463,41.68z"/>
		<path fill="#FFFFFF" d="M28.759,27.71l7.516,0.451l7.516,0.451l-4.149,6.284l-4.149,6.285l-3.367-6.735L28.759,27.71
			 M28.759,26.71c-0.335,0-0.649,0.168-0.834,0.449c-0.197,0.298-0.22,0.679-0.06,0.998l3.367,6.736l3.367,6.735
			c0.16,0.32,0.478,0.53,0.835,0.551c0.02,0.001,0.04,0.002,0.06,0.002c0.335,0,0.649-0.168,0.834-0.449l4.149-6.285l4.149-6.284
			c0.197-0.298,0.22-0.679,0.06-0.998c-0.16-0.32-0.478-0.53-0.835-0.551l-7.516-0.451l-7.516-0.451
			C28.799,26.71,28.779,26.71,28.759,26.71L28.759,26.71z"/>
	</g>
	<g>
		<path fill="#21325D" d="M27.311,35.837c-0.081,0-0.162-0.02-0.235-0.059l-11.02-5.888c-0.158-0.084-0.259-0.246-0.265-0.424
			c-0.006-0.179,0.084-0.347,0.236-0.441l10.609-6.6c0.08-0.05,0.172-0.076,0.264-0.076c0.081,0,0.162,0.02,0.235,0.059
			c0.158,0.084,0.259,0.246,0.265,0.424l0.41,12.488c0.006,0.179-0.084,0.347-0.236,0.441
			C27.494,35.812,27.403,35.837,27.311,35.837z"/>
		<path fill="#FFFFFF" d="M26.9,22.849l0.205,6.244l0.205,6.244l-5.51-2.944l-5.51-2.944l5.304-3.3L26.9,22.849 M26.9,21.849
			c-0.184,0-0.367,0.051-0.528,0.151l-5.305,3.3l-5.304,3.3c-0.303,0.189-0.483,0.525-0.471,0.882
			c0.012,0.357,0.213,0.681,0.528,0.849l5.51,2.944l5.51,2.944c0.148,0.079,0.309,0.118,0.471,0.118
			c0.184,0,0.367-0.051,0.528-0.151c0.303-0.189,0.483-0.525,0.471-0.882l-0.205-6.244L27.9,22.816
			c-0.012-0.357-0.213-0.681-0.528-0.849C27.224,21.888,27.062,21.849,26.9,21.849L26.9,21.849z"/>
	</g>
	<g>
		<path fill="#21325D" d="M17.102,47.693c-0.108,0-0.217-0.036-0.306-0.104c-0.142-0.109-0.214-0.286-0.189-0.462l1.8-13.426
			c0.023-0.177,0.14-0.328,0.305-0.396c0.062-0.025,0.126-0.038,0.19-0.038c0.108,0,0.217,0.036,0.306,0.104l10.727,8.271
			c0.141,0.109,0.214,0.285,0.189,0.462c-0.023,0.177-0.14,0.328-0.305,0.396l-12.526,5.155
			C17.231,47.681,17.166,47.693,17.102,47.693z"/>
		<path fill="#FFFFFF" d="M18.901,33.767l5.364,4.136l5.363,4.135l-6.263,2.577l-6.263,2.577l0.9-6.713L18.901,33.767
			 M18.901,32.767c-0.129,0-0.258,0.025-0.38,0.075c-0.33,0.136-0.563,0.438-0.611,0.792l-0.899,6.712l-0.9,6.713
			c-0.047,0.354,0.098,0.707,0.38,0.925c0.178,0.137,0.393,0.208,0.611,0.208c0.128,0,0.258-0.025,0.38-0.075l6.263-2.577
			l6.263-2.578c0.33-0.136,0.563-0.438,0.611-0.792c0.047-0.354-0.098-0.707-0.38-0.925l-5.363-4.135l-5.364-4.136
			C19.334,32.838,19.119,32.767,18.901,32.767L18.901,32.767z"/>
	</g>
	<g>
		<path fill="#21325D" d="M33.008,55.042c-0.115,0-0.228-0.039-0.319-0.115l-8.124-6.738c-0.138-0.114-0.203-0.292-0.174-0.469
			c0.03-0.176,0.152-0.323,0.319-0.385l9.896-3.666c0.057-0.021,0.115-0.031,0.174-0.031c0.115,0,0.229,0.04,0.319,0.115
			c0.138,0.114,0.203,0.292,0.174,0.469l-1.772,10.404c-0.03,0.176-0.152,0.323-0.319,0.385
			C33.125,55.033,33.067,55.042,33.008,55.042z"/>
		<path fill="#FFFFFF" d="M34.781,44.138l-0.887,5.202l-0.885,5.202l-4.062-3.368l-4.062-3.37l4.949-1.833L34.781,44.138
			 M34.781,43.138c-0.117,0-0.234,0.02-0.347,0.062l-4.949,1.833l-4.949,1.833c-0.335,0.124-0.578,0.418-0.638,0.77
			s0.072,0.71,0.347,0.938l4.062,3.37l4.062,3.368c0.182,0.151,0.409,0.23,0.638,0.23c0.117,0,0.234-0.02,0.347-0.062
			c0.335-0.124,0.578-0.418,0.638-0.77l0.885-5.202l0.887-5.202c0.06-0.352-0.072-0.71-0.347-0.938
			C35.237,43.217,35.01,43.138,34.781,43.138L34.781,43.138z"/>
	</g>
	<g>
		<path fill="#21325D" d="M38.611,57.783c-0.059,0-0.117-0.01-0.174-0.031c-0.167-0.062-0.289-0.208-0.319-0.385L36.34,46.963
			c-0.029-0.176,0.036-0.354,0.174-0.469c0.091-0.076,0.204-0.115,0.319-0.115c0.059,0,0.117,0.01,0.174,0.031l9.898,3.663
			c0.167,0.062,0.289,0.208,0.319,0.385c0.029,0.176-0.036,0.354-0.174,0.469l-8.121,6.741
			C38.839,57.743,38.726,57.783,38.611,57.783z"/>
		<path fill="#FFFFFF" d="M36.834,46.879l4.95,1.832l4.948,1.831l-4.061,3.371l-4.06,3.37l-0.889-5.202L36.834,46.879
			 M36.834,45.879c-0.23,0-0.456,0.079-0.639,0.231c-0.275,0.228-0.407,0.586-0.347,0.938l0.888,5.202l0.889,5.202
			c0.06,0.352,0.304,0.645,0.639,0.769c0.113,0.042,0.23,0.062,0.347,0.062c0.23,0,0.456-0.079,0.639-0.231l4.06-3.37l4.061-3.371
			c0.275-0.228,0.407-0.586,0.347-0.938s-0.304-0.645-0.639-0.769l-4.948-1.831l-4.95-1.832
			C37.068,45.899,36.95,45.879,36.834,45.879L36.834,45.879z"/>
	</g>
	<g>
		<path fill="#21325D" d="M47.955,65.198c-0.103,0-0.205-0.032-0.292-0.094l-8.571-6.159c-0.145-0.104-0.224-0.278-0.205-0.456
			c0.018-0.178,0.129-0.332,0.291-0.406l9.62-4.342c0.066-0.03,0.136-0.044,0.206-0.044c0.103,0,0.205,0.032,0.292,0.094
			c0.145,0.104,0.224,0.278,0.205,0.456l-1.049,10.502c-0.018,0.178-0.129,0.332-0.291,0.406
			C48.095,65.183,48.026,65.198,47.955,65.198z"/>
		<path fill="#FFFFFF" d="M49.004,54.196l-0.524,5.251l-0.524,5.25l-4.286-3.08l-4.286-3.08l4.81-2.172L49.004,54.196
			 M49.004,53.196c-0.14,0-0.28,0.029-0.411,0.089l-4.809,2.171l-4.81,2.172c-0.326,0.147-0.548,0.457-0.584,0.812
			s0.121,0.703,0.412,0.911l4.286,3.08l4.286,3.08c0.173,0.124,0.378,0.188,0.584,0.188c0.14,0,0.28-0.029,0.411-0.089
			c0.326-0.147,0.548-0.457,0.584-0.812l0.524-5.25l0.524-5.251c0.035-0.355-0.121-0.703-0.411-0.911
			C49.414,53.26,49.21,53.196,49.004,53.196L49.004,53.196z"/>
	</g>
	<g>
		<path fill="#21325D" d="M19.335,57.161c-0.103,0-0.205-0.032-0.292-0.094l-6.047-4.345c-0.145-0.104-0.224-0.278-0.205-0.456
			c0.018-0.178,0.129-0.333,0.291-0.406l6.786-3.063c0.066-0.03,0.136-0.044,0.206-0.044c0.103,0,0.205,0.032,0.292,0.094
			c0.145,0.104,0.224,0.278,0.205,0.456l-0.739,7.408c-0.018,0.178-0.129,0.332-0.291,0.406
			C19.475,57.146,19.405,57.161,19.335,57.161z"/>
		<path fill="#FFFFFF" d="M20.075,49.252l-0.37,3.705l-0.369,3.703l-3.023-2.172l-3.024-2.173l3.394-1.532L20.075,49.252
			 M20.075,48.252c-0.14,0-0.28,0.029-0.411,0.089l-3.392,1.532l-3.394,1.532c-0.326,0.147-0.548,0.457-0.584,0.812
			c-0.035,0.356,0.121,0.703,0.412,0.911l3.024,2.173l3.023,2.172c0.173,0.124,0.378,0.188,0.584,0.188
			c0.14,0,0.28-0.029,0.411-0.089c0.326-0.147,0.548-0.457,0.583-0.812l0.369-3.703l0.37-3.705c0.036-0.356-0.121-0.703-0.411-0.911
			C20.485,48.316,20.281,48.252,20.075,48.252L20.075,48.252z"/>
	</g>
	<g>
		<path fill="#21325D" d="M21.458,57.443c-0.147,0-0.29-0.065-0.386-0.182c-0.113-0.138-0.146-0.325-0.083-0.493l2.6-6.976
			c0.063-0.167,0.21-0.289,0.386-0.318c0.027-0.004,0.056-0.007,0.083-0.007c0.147,0,0.289,0.065,0.386,0.182l4.742,5.74
			c0.113,0.138,0.146,0.325,0.083,0.493c-0.063,0.167-0.21,0.289-0.386,0.318l-7.342,1.236
			C21.514,57.441,21.486,57.443,21.458,57.443z"/>
		<path fill="#FFFFFF" d="M24.058,49.967l2.371,2.869l2.37,2.87l-3.67,0.619l-3.671,0.618l1.3-3.489L24.058,49.967 M24.058,48.967
			c-0.055,0-0.111,0.005-0.166,0.014c-0.352,0.059-0.646,0.302-0.771,0.637l-1.3,3.488l-1.3,3.489
			c-0.125,0.335-0.061,0.711,0.166,0.986c0.192,0.232,0.476,0.363,0.771,0.363c0.055,0,0.111-0.005,0.166-0.014l3.671-0.618
			l3.671-0.619c0.352-0.059,0.646-0.302,0.771-0.637c0.125-0.335,0.061-0.711-0.166-0.986l-2.37-2.87l-2.372-2.87
			C24.637,49.098,24.354,48.967,24.058,48.967L24.058,48.967z"/>
	</g>
	<g>
		<path fill="#21325D" d="M33.015,65.019c-0.103,0-0.205-0.031-0.291-0.094l-6.055-4.334c-0.146-0.104-0.224-0.277-0.207-0.455
			c0.018-0.178,0.129-0.333,0.291-0.406l6.78-3.076c0.065-0.03,0.136-0.045,0.206-0.045c0.103,0,0.205,0.031,0.291,0.094
			c0.146,0.104,0.224,0.277,0.207,0.455l-0.725,7.41c-0.018,0.178-0.129,0.333-0.291,0.406
			C33.155,65.004,33.085,65.019,33.015,65.019z"/>
		<path fill="#FFFFFF" d="M33.74,57.108l-0.362,3.705l-0.363,3.705l-3.027-2.167l-3.028-2.166l3.39-1.539L33.74,57.108
			 M33.74,56.108c-0.14,0-0.281,0.029-0.413,0.089l-3.39,1.538l-3.39,1.539c-0.325,0.148-0.547,0.458-0.582,0.813
			c-0.035,0.356,0.123,0.703,0.413,0.911l3.028,2.166l3.027,2.167c0.173,0.124,0.377,0.187,0.582,0.187
			c0.14,0,0.281-0.029,0.413-0.089c0.325-0.148,0.547-0.458,0.582-0.813l0.363-3.705l0.362-3.705
			c0.035-0.356-0.123-0.703-0.413-0.911C34.149,56.172,33.945,56.108,33.74,56.108L33.74,56.108z"/>
	</g>
	<g>
		<path fill="#21325D" d="M37.728,68.907c-0.069,0-0.14-0.015-0.206-0.044c-0.162-0.073-0.273-0.229-0.291-0.406l-0.741-7.408
			c-0.019-0.178,0.061-0.352,0.205-0.456c0.087-0.062,0.188-0.094,0.292-0.094c0.069,0,0.14,0.015,0.205,0.044l6.786,3.062
			c0.162,0.074,0.273,0.229,0.291,0.406c0.019,0.178-0.061,0.352-0.205,0.456l-6.044,4.347
			C37.933,68.874,37.831,68.907,37.728,68.907z"/>
		<path fill="#FFFFFF" d="M36.986,60.998l3.394,1.531l3.392,1.531l-3.022,2.173l-3.023,2.174l-0.371-3.705L36.986,60.998
			 M36.986,59.998c-0.206,0-0.411,0.064-0.584,0.188c-0.29,0.209-0.447,0.556-0.411,0.911l0.371,3.703l0.371,3.705
			c0.036,0.356,0.258,0.665,0.584,0.812c0.131,0.059,0.272,0.088,0.411,0.088c0.206,0,0.411-0.064,0.584-0.188l3.023-2.174
			l3.022-2.173c0.29-0.209,0.447-0.556,0.411-0.911c-0.036-0.355-0.258-0.665-0.584-0.812l-3.392-1.531l-3.394-1.531
			C37.266,60.027,37.126,59.998,36.986,59.998L36.986,59.998z"/>
	</g>
	<g>
		<path fill="#21325D" d="M12.505,63.508c-0.07,0-0.14-0.015-0.206-0.044c-0.162-0.074-0.273-0.229-0.291-0.406l-0.605-6.046
			c-0.019-0.178,0.06-0.352,0.205-0.456c0.087-0.062,0.188-0.094,0.292-0.094c0.069,0,0.14,0.015,0.205,0.044l5.54,2.499
			c0.162,0.074,0.273,0.229,0.291,0.406c0.019,0.178-0.061,0.352-0.205,0.456l-4.934,3.547
			C12.71,63.476,12.608,63.508,12.505,63.508z"/>
		<path fill="#FFFFFF" d="M11.9,56.962l2.77,1.249l2.769,1.249l-2.467,1.773l-2.467,1.774l-0.302-3.023L11.9,56.962 M11.9,55.962
			c-0.206,0-0.411,0.064-0.584,0.188c-0.29,0.209-0.447,0.556-0.411,0.912l0.303,3.023l0.302,3.022
			c0.035,0.356,0.258,0.665,0.584,0.812c0.131,0.059,0.272,0.089,0.411,0.089c0.206,0,0.411-0.064,0.584-0.188l2.467-1.774
			l2.467-1.773c0.29-0.209,0.447-0.556,0.411-0.912c-0.036-0.356-0.258-0.665-0.584-0.812L15.081,57.3l-2.77-1.249
			C12.18,55.992,12.04,55.962,11.9,55.962L11.9,55.962z"/>
	</g>
	<g>
		<path fill="#21325D" d="M20.752,66.76l-6.032-0.736c-0.178-0.021-0.33-0.136-0.399-0.301c-0.07-0.164-0.047-0.354,0.061-0.496
			l3.654-4.855c0.095-0.126,0.243-0.199,0.399-0.199c0.021,0,0.04,0.001,0.061,0.004c0.178,0.021,0.33,0.136,0.399,0.301
			l2.378,5.592c0.07,0.164,0.047,0.354-0.061,0.496c-0.095,0.126-0.243,0.199-0.399,0.199C20.792,66.764,20.773,66.763,20.752,66.76
			z"/>
		<path fill="#FFFFFF" d="M18.434,60.672l1.189,2.797l1.189,2.795l-3.017-0.368l-3.015-0.368l1.827-2.428L18.434,60.672
			 M18.434,59.672c-0.312,0-0.609,0.146-0.799,0.399l-1.827,2.427l-1.827,2.428c-0.215,0.285-0.261,0.664-0.121,0.993
			c0.14,0.329,0.444,0.558,0.799,0.601l3.015,0.368l3.017,0.368c0.04,0.005,0.081,0.007,0.121,0.007
			c0.312,0,0.609-0.146,0.799-0.399c0.215-0.286,0.261-0.664,0.121-0.993l-1.189-2.795l-1.189-2.797
			c-0.14-0.329-0.444-0.558-0.799-0.601C18.515,59.675,18.475,59.672,18.434,59.672L18.434,59.672z"/>
	</g>
	<g>
		<path fill="#21325D" d="M24.23,64.667c-0.137,0-0.27-0.056-0.365-0.158l-4.153-4.436c-0.122-0.13-0.165-0.316-0.113-0.487
			s0.191-0.301,0.365-0.342l5.918-1.38c0.037-0.009,0.075-0.013,0.113-0.013c0.137,0,0.27,0.056,0.365,0.158
			c0.122,0.131,0.165,0.316,0.113,0.487l-1.765,5.815c-0.052,0.171-0.191,0.301-0.365,0.342
			C24.306,64.663,24.268,64.667,24.23,64.667z"/>
		<path fill="#FFFFFF" d="M25.994,58.352l-0.883,2.908l-0.882,2.908l-2.077-2.218l-2.077-2.218l2.959-0.69L25.994,58.352
			 M25.994,57.352c-0.076,0-0.152,0.009-0.227,0.026l-2.959,0.69l-2.959,0.69c-0.348,0.081-0.626,0.342-0.73,0.684
			c-0.104,0.342-0.017,0.713,0.227,0.974l2.077,2.218l2.077,2.218c0.191,0.204,0.457,0.316,0.73,0.316
			c0.076,0,0.152-0.009,0.227-0.026c0.348-0.081,0.626-0.342,0.73-0.684l0.882-2.908l0.883-2.908
			c0.104-0.342,0.017-0.713-0.227-0.974C26.533,57.464,26.268,57.352,25.994,57.352L25.994,57.352z"/>
	</g>
	<g>
		<path fill="#21325D" d="M25.146,72.567c-0.086,0-0.171-0.021-0.248-0.065l-5.277-3.014c-0.155-0.089-0.251-0.254-0.252-0.433
			s0.094-0.344,0.248-0.434l5.249-3.063c0.078-0.046,0.165-0.068,0.252-0.068c0.086,0,0.171,0.021,0.248,0.065
			c0.155,0.089,0.251,0.254,0.252,0.433l0.028,6.076c0.001,0.178-0.094,0.344-0.248,0.434C25.32,72.544,25.233,72.567,25.146,72.567
			z"/>
		<path fill="#FFFFFF" d="M25.117,65.991l0.014,3.039l0.014,3.037l-2.638-1.507l-2.639-1.507l2.624-1.531L25.117,65.991
			 M25.117,64.991c-0.174,0-0.348,0.045-0.504,0.136l-2.624,1.532l-2.624,1.53c-0.309,0.18-0.498,0.511-0.496,0.868
			c0.002,0.357,0.194,0.687,0.504,0.864l2.639,1.507l2.638,1.507c0.154,0.088,0.325,0.132,0.496,0.132
			c0.174,0,0.348-0.045,0.504-0.136c0.309-0.18,0.498-0.511,0.496-0.868l-0.014-3.037l-0.014-3.039
			c-0.002-0.357-0.194-0.687-0.504-0.864C25.46,65.034,25.288,64.991,25.117,64.991L25.117,64.991z"/>
	</g>
	<g>
		<path fill="#21325D" d="M27.793,69.792c-0.038,0-0.077-0.004-0.115-0.014c-0.174-0.041-0.313-0.172-0.363-0.343l-1.746-5.82
			c-0.052-0.171-0.008-0.356,0.114-0.486c0.096-0.102,0.229-0.157,0.364-0.157c0.038,0,0.077,0.004,0.115,0.014l5.913,1.399
			c0.174,0.041,0.313,0.172,0.363,0.343c0.052,0.171,0.008,0.356-0.115,0.486l-4.166,4.421
			C28.062,69.737,27.929,69.792,27.793,69.792z"/>
		<path fill="#FFFFFF" d="M26.047,63.472l2.957,0.699l2.956,0.7l-2.084,2.21l-2.083,2.211l-0.873-2.91L26.047,63.472 M26.047,62.472
			c-0.272,0-0.536,0.111-0.728,0.314c-0.245,0.26-0.333,0.631-0.23,0.973l0.873,2.91l0.874,2.91c0.103,0.342,0.38,0.604,0.728,0.686
			c0.076,0.018,0.153,0.027,0.23,0.027c0.272,0,0.537-0.111,0.728-0.314l2.083-2.211l2.084-2.21c0.245-0.26,0.333-0.631,0.23-0.973
			c-0.103-0.342-0.38-0.604-0.727-0.686l-2.956-0.7l-2.958-0.699C26.201,62.481,26.124,62.472,26.047,62.472L26.047,62.472z"/>
	</g>
	<g>
		<path fill="#21325D" d="M32.018,76.394c-0.06,0-0.12-0.011-0.178-0.032l-5.681-2.157c-0.167-0.063-0.287-0.212-0.315-0.388
			c-0.029-0.177,0.039-0.354,0.177-0.468l4.708-3.841c0.091-0.073,0.203-0.112,0.316-0.112c0.06,0,0.12,0.011,0.178,0.032
			c0.167,0.063,0.287,0.212,0.315,0.388l0.973,5.998c0.029,0.177-0.039,0.354-0.177,0.468
			C32.243,76.355,32.131,76.394,32.018,76.394z"/>
		<path fill="#FFFFFF" d="M31.045,69.896l0.486,2.999l0.486,2.999l-2.84-1.079l-2.84-1.079l2.353-1.921L31.045,69.896
			 M31.045,68.896c-0.227,0-0.451,0.077-0.632,0.225l-2.355,1.92l-2.354,1.921c-0.277,0.226-0.412,0.582-0.355,0.935
			c0.057,0.353,0.298,0.648,0.632,0.775l2.84,1.079l2.84,1.079c0.115,0.044,0.235,0.065,0.355,0.065
			c0.227,0,0.451-0.077,0.632-0.225c0.277-0.226,0.412-0.582,0.355-0.935l-0.486-2.999l-0.486-2.999
			c-0.057-0.353-0.298-0.648-0.632-0.775C31.285,68.917,31.165,68.896,31.045,68.896L31.045,68.896z"/>
	</g>
	<g>
		<path fill="#21325D" d="M34.952,73.103c-0.156,0-0.305-0.073-0.4-0.2l-3.643-4.863c-0.106-0.143-0.13-0.332-0.06-0.496
			c0.07-0.165,0.223-0.279,0.4-0.3l6.031-0.724c0.02-0.003,0.04-0.004,0.06-0.004c0.156,0,0.305,0.073,0.4,0.2
			c0.106,0.143,0.13,0.332,0.06,0.496l-2.389,5.587c-0.07,0.165-0.223,0.279-0.4,0.3C34.992,73.102,34.972,73.103,34.952,73.103z"/>
		<path fill="#FFFFFF" d="M37.342,67.017l-1.195,2.794l-1.194,2.793l-1.821-2.431l-1.822-2.431l3.016-0.362L37.342,67.017
			 M37.342,66.017c-0.04,0-0.079,0.002-0.119,0.007l-3.016,0.362l-3.016,0.362c-0.355,0.043-0.66,0.271-0.8,0.6
			c-0.141,0.328-0.095,0.707,0.119,0.993l1.822,2.431l1.821,2.431c0.19,0.254,0.488,0.4,0.8,0.4c0.04,0,0.079-0.002,0.119-0.007
			c0.355-0.043,0.66-0.271,0.8-0.6l1.194-2.793l1.195-2.794c0.141-0.328,0.095-0.707-0.119-0.993
			C37.952,66.163,37.654,66.017,37.342,66.017L37.342,66.017z"/>
	</g>
	<g>
		<path fill="#21325D" d="M74.82,35.771c-0.156,0-0.305-0.073-0.4-0.2l-3.643-4.863c-0.106-0.143-0.13-0.332-0.06-0.497
			c0.07-0.164,0.223-0.278,0.4-0.3l6.033-0.724c0.02-0.002,0.04-0.003,0.06-0.003c0.156,0,0.305,0.073,0.4,0.2
			c0.106,0.143,0.13,0.333,0.06,0.497l-2.391,5.586c-0.07,0.164-0.223,0.278-0.4,0.3C74.86,35.77,74.839,35.771,74.82,35.771z"/>
		<path fill="#FFFFFF" d="M77.21,29.684l-1.196,2.793l-1.195,2.793l-1.821-2.431l-1.821-2.432l3.016-0.362L77.21,29.684
			 M77.21,28.684c-0.04,0-0.079,0.002-0.119,0.007l-3.017,0.362l-3.016,0.362c-0.355,0.043-0.66,0.271-0.8,0.6
			c-0.141,0.328-0.095,0.707,0.119,0.993l1.821,2.432l1.821,2.431c0.19,0.254,0.488,0.4,0.8,0.4c0.04,0,0.079-0.002,0.119-0.007
			c0.355-0.043,0.66-0.271,0.8-0.6l1.195-2.793l1.196-2.793c0.141-0.328,0.095-0.707-0.119-0.993
			C77.821,28.831,77.523,28.684,77.21,28.684L77.21,28.684z"/>
	</g>
	<g>
		<path fill="#21325D" d="M79.924,39.829l-6.012-0.885c-0.177-0.026-0.326-0.144-0.392-0.311c-0.065-0.166-0.038-0.354,0.073-0.495
			l3.772-4.764c0.096-0.121,0.24-0.189,0.392-0.189c0.024,0,0.049,0.002,0.073,0.005c0.177,0.026,0.326,0.145,0.392,0.311
			l2.239,5.648c0.065,0.167,0.038,0.355-0.073,0.495c-0.095,0.121-0.24,0.189-0.392,0.189
			C79.973,39.834,79.948,39.832,79.924,39.829z"/>
		<path fill="#FFFFFF" d="M77.758,33.685l1.119,2.825l1.12,2.824l-3.006-0.442l-3.006-0.442l1.886-2.382L77.758,33.685
			 M77.758,32.685c-0.303,0-0.593,0.138-0.784,0.379l-1.886,2.382l-1.886,2.382c-0.222,0.28-0.277,0.657-0.146,0.989
			c0.132,0.332,0.431,0.569,0.784,0.621l3.006,0.442l3.006,0.442c0.049,0.007,0.097,0.011,0.146,0.011
			c0.303,0,0.593-0.138,0.784-0.379c0.222-0.28,0.277-0.657,0.146-0.989l-1.12-2.824l-1.119-2.825
			c-0.132-0.332-0.43-0.569-0.784-0.621C77.855,32.689,77.806,32.685,77.758,32.685L77.758,32.685z"/>
	</g>
	<g>
		<path fill="#21325D" d="M69.83,44.402c-0.132,0-0.261-0.052-0.355-0.148c-0.126-0.127-0.174-0.312-0.127-0.484l1.605-5.861
			c0.048-0.172,0.183-0.306,0.355-0.352c0.042-0.011,0.085-0.016,0.127-0.016c0.132,0,0.261,0.052,0.355,0.148l4.272,4.321
			c0.126,0.127,0.174,0.312,0.127,0.484c-0.048,0.172-0.183,0.306-0.355,0.352l-5.878,1.54
			C69.915,44.397,69.872,44.402,69.83,44.402z"/>
		<path fill="#FFFFFF" d="M71.435,38.041l2.136,2.16l2.136,2.16l-2.939,0.77l-2.939,0.771l0.803-2.931L71.435,38.041 M71.435,37.041
			c-0.084,0-0.17,0.011-0.253,0.033c-0.346,0.091-0.617,0.359-0.711,0.703l-0.802,2.93l-0.803,2.93
			c-0.094,0.345,0.002,0.713,0.254,0.967c0.19,0.192,0.447,0.297,0.711,0.297c0.085,0,0.17-0.011,0.254-0.033l2.939-0.771
			l2.938-0.769c0.346-0.09,0.617-0.359,0.711-0.703s-0.002-0.713-0.253-0.967l-2.136-2.16l-2.136-2.16
			C71.956,37.146,71.699,37.041,71.435,37.041L71.435,37.041z"/>
	</g>
	<g>
		<path fill="#21325D" d="M57.219,16.904c-0.156,0-0.305-0.073-0.4-0.2l-3.645-4.863c-0.106-0.143-0.13-0.332-0.06-0.497
			c0.07-0.164,0.223-0.278,0.4-0.3l6.034-0.723c0.02-0.002,0.04-0.003,0.06-0.003c0.156,0,0.305,0.073,0.4,0.2
			c0.106,0.143,0.13,0.332,0.06,0.497l-2.39,5.586c-0.07,0.164-0.223,0.278-0.4,0.3C57.259,16.903,57.238,16.904,57.219,16.904z"/>
		<path fill="#FFFFFF" d="M59.608,10.817l-1.195,2.794l-1.194,2.793l-1.822-2.431l-1.822-2.432l3.017-0.362L59.608,10.817
			 M59.608,9.817c-0.04,0-0.079,0.002-0.119,0.007l-3.017,0.362l-3.017,0.362c-0.355,0.043-0.66,0.271-0.8,0.6
			c-0.141,0.328-0.095,0.707,0.119,0.993l1.822,2.432l1.822,2.431c0.19,0.254,0.488,0.4,0.8,0.4c0.04,0,0.079-0.002,0.119-0.007
			c0.355-0.043,0.66-0.271,0.8-0.6l1.194-2.793l1.195-2.794c0.141-0.328,0.095-0.707-0.119-0.993
			C60.218,9.964,59.921,9.817,59.608,9.817L59.608,9.817z"/>
	</g>
	<g>
		<path fill="#21325D" d="M63.104,19.367l-4.979-0.674c-0.177-0.024-0.327-0.141-0.396-0.306c-0.067-0.166-0.042-0.354,0.067-0.496
			l3.073-3.976c0.096-0.124,0.242-0.194,0.396-0.194c0.022,0,0.045,0.001,0.067,0.004c0.177,0.024,0.327,0.141,0.396,0.306
			l1.906,4.649c0.067,0.165,0.042,0.354-0.067,0.495c-0.096,0.124-0.242,0.194-0.396,0.194
			C63.149,19.371,63.126,19.37,63.104,19.367z"/>
		<path fill="#FFFFFF" d="M61.264,14.221l0.953,2.325l0.953,2.325l-2.49-0.337l-2.489-0.336l1.536-1.987L61.264,14.221
			 M61.264,13.221c-0.307,0-0.6,0.142-0.791,0.389l-1.536,1.988l-1.536,1.987c-0.219,0.283-0.27,0.66-0.134,0.991
			c0.136,0.331,0.437,0.564,0.791,0.612l2.489,0.336l2.489,0.337c0.045,0.006,0.09,0.009,0.134,0.009c0.307,0,0.6-0.141,0.791-0.388
			c0.219-0.283,0.27-0.66,0.134-0.991l-0.953-2.325l-0.953-2.325c-0.136-0.331-0.437-0.564-0.791-0.612
			C61.354,13.224,61.309,13.221,61.264,13.221L61.264,13.221z"/>
	</g>
	<g>
		<path fill="#21325D" d="M64.374,24.258c-0.178-0.021-0.331-0.134-0.402-0.298l-1.543-3.561c-0.071-0.164-0.049-0.353,0.058-0.497
			c0.095-0.128,0.244-0.202,0.401-0.202c0.019,0,3.913,0.447,3.913,0.447c0.177,0.021,0.33,0.134,0.401,0.298
			s0.049,0.354-0.058,0.497l-2.313,3.117c-0.095,0.128-0.244,0.202-0.401,0.202C64.412,24.261,64.393,24.26,64.374,24.258z"/>
		<path fill="#FFFFFF" d="M62.887,20.2l1.928,0.222l1.929,0.222l-1.157,1.558l-1.156,1.559l-0.772-1.781L62.887,20.2 M62.887,19.2
			c-0.314,0-0.613,0.148-0.803,0.404c-0.213,0.287-0.256,0.666-0.114,0.993l0.772,1.781l0.772,1.781
			c0.142,0.328,0.448,0.555,0.803,0.596c0.038,0.004,0.076,0.007,0.114,0.007c0.314,0,0.613-0.148,0.803-0.404l1.156-1.559
			l1.157-1.558c0.213-0.287,0.257-0.666,0.115-0.994c-0.142-0.328-0.448-0.555-0.803-0.596l-1.929-0.222l-1.928-0.222
			C62.963,19.202,62.925,19.2,62.887,19.2L62.887,19.2z"/>
	</g>
	<g>
		<path fill="#21325D" d="M24.966,6.091c-0.159,0-0.31-0.076-0.404-0.206c-0.105-0.145-0.125-0.334-0.053-0.497l2.043-4.591
			c0.073-0.164,0.227-0.275,0.404-0.294C26.974,0.501,26.991,0.5,27.009,0.5c0.159,0,0.31,0.076,0.404,0.206l2.955,4.064
			c0.105,0.145,0.125,0.334,0.053,0.497c-0.073,0.163-0.227,0.275-0.404,0.294C30.017,5.561,24.984,6.091,24.966,6.091z"/>
		<path fill="#FFFFFF" d="M27.009,1l1.477,2.033l1.478,2.032l-2.498,0.264l-2.5,0.264l1.021-2.295L27.009,1 M27.009,0
			c-0.035,0-0.07,0.002-0.105,0.005c-0.355,0.037-0.664,0.262-0.809,0.588l-1.022,2.296l-1.021,2.295
			c-0.145,0.326-0.105,0.706,0.105,0.995c0.189,0.26,0.491,0.412,0.809,0.412c0.035,0,0.07-0.002,0.105-0.006l2.5-0.264l2.498-0.264
			c0.355-0.037,0.664-0.262,0.809-0.588c0.145-0.327,0.105-0.706-0.105-0.995l-1.478-2.031l-1.477-2.032
			C27.628,0.152,27.327,0,27.009,0L27.009,0z"/>
	</g>
	<g>
		<path fill="#21325D" d="M40.705,10.35c-0.04,0-0.081-0.005-0.121-0.015c-0.173-0.043-0.311-0.176-0.359-0.348L38.84,5.157
			c-0.05-0.171-0.003-0.356,0.121-0.485c0.095-0.099,0.226-0.153,0.359-0.153c0.04,0,0.081,0.005,0.121,0.015l4.875,1.216
			c0.173,0.043,0.311,0.176,0.359,0.348c0.05,0.171,0.003,0.356-0.121,0.485l-3.49,3.615C40.97,10.296,40.839,10.35,40.705,10.35z"
			/>
		<path fill="#FFFFFF" d="M39.321,5.019l2.437,0.608l2.438,0.608l-1.745,1.807l-1.746,1.808l-0.692-2.416L39.321,5.019
			 M39.321,4.019c-0.268,0-0.529,0.108-0.719,0.305c-0.248,0.257-0.34,0.627-0.242,0.97l0.693,2.415l0.691,2.415
			c0.098,0.344,0.372,0.608,0.719,0.695c0.08,0.02,0.161,0.03,0.242,0.03c0.268,0,0.529-0.108,0.719-0.305l1.746-1.808l1.745-1.807
			c0.248-0.257,0.34-0.627,0.242-0.97c-0.099-0.343-0.373-0.608-0.719-0.695L42,4.656l-2.437-0.608
			C39.483,4.029,39.401,4.019,39.321,4.019L39.321,4.019z"/>
	</g>
	<g>
		<path fill="#21325D" d="M38.786,15.17c-0.079,0-0.159-0.019-0.231-0.057c-0.158-0.083-0.261-0.244-0.269-0.422l-0.14-3.331
			c-0.007-0.178,0.081-0.348,0.232-0.443c0.081-0.052,0.174-0.078,0.268-0.078c0.079,0,0.159,0.019,0.231,0.057l2.955,1.544
			c0.158,0.083,0.261,0.244,0.269,0.422c0.007,0.179-0.081,0.348-0.232,0.443l-2.815,1.786C38.973,15.144,38.88,15.17,38.786,15.17z
			"/>
		<path fill="#FFFFFF" d="M38.647,11.339l1.477,0.773l1.478,0.772l-1.408,0.893l-1.407,0.893l-0.07-1.665L38.647,11.339
			 M38.647,10.339c-0.187,0-0.373,0.052-0.536,0.156c-0.302,0.191-0.478,0.529-0.464,0.886l0.07,1.666l0.07,1.665
			c0.015,0.357,0.219,0.679,0.536,0.844c0.146,0.076,0.305,0.114,0.463,0.114c0.187,0,0.373-0.052,0.536-0.156l1.407-0.893
			l1.408-0.893c0.302-0.191,0.479-0.529,0.464-0.886c-0.015-0.357-0.219-0.679-0.536-0.844l-1.478-0.772l-1.476-0.773
			C38.965,10.377,38.806,10.339,38.647,10.339L38.647,10.339z"/>
	</g>
	<g>
		<path fill="#21325D" d="M46.198,30.334c-0.079,0-0.159-0.019-0.231-0.057c-0.158-0.083-0.261-0.244-0.269-0.422l-0.216-5.164
			c-0.007-0.179,0.081-0.348,0.232-0.443c0.081-0.052,0.174-0.078,0.268-0.078c0.079,0,0.159,0.019,0.231,0.057l4.581,2.395
			c0.158,0.083,0.261,0.244,0.269,0.422c0.007,0.179-0.081,0.347-0.232,0.443l-4.365,2.769
			C46.385,30.308,46.291,30.334,46.198,30.334z"/>
		<path fill="#FFFFFF" d="M45.983,24.67l2.291,1.198l2.29,1.197l-2.182,1.385l-2.183,1.385l-0.108-2.581L45.983,24.67 M45.983,23.67
			c-0.187,0-0.373,0.052-0.536,0.156c-0.302,0.191-0.478,0.529-0.463,0.886l0.108,2.583l0.108,2.581
			c0.015,0.357,0.219,0.679,0.536,0.844c0.146,0.076,0.305,0.114,0.463,0.114c0.187,0,0.373-0.052,0.536-0.156l2.183-1.385
			l2.182-1.385c0.302-0.191,0.478-0.529,0.463-0.886c-0.015-0.357-0.219-0.679-0.536-0.844l-2.29-1.197l-2.291-1.198
			C46.301,23.708,46.142,23.67,45.983,23.67L45.983,23.67z"/>
	</g>
	<g>
		<path fill="#21325D" d="M55.001,27.373c-0.127,0-0.252-0.049-0.347-0.139l-2.662-2.555c-0.128-0.124-0.182-0.307-0.139-0.48
			c0.042-0.174,0.175-0.311,0.346-0.361l3.545-1.028c0.045-0.013,0.092-0.02,0.139-0.02c0.127,0,0.252,0.049,0.347,0.139
			c0.129,0.124,0.182,0.307,0.139,0.48l-0.882,3.582c-0.042,0.174-0.175,0.311-0.346,0.361
			C55.095,27.367,55.048,27.373,55.001,27.373z"/>
		<path fill="#FFFFFF" d="M55.883,23.291l-0.442,1.791l-0.44,1.792l-1.331-1.277l-1.332-1.277l1.771-0.514L55.883,23.291
			 M55.883,22.29c-0.093,0-0.186,0.013-0.278,0.04l-1.773,0.514l-1.772,0.515c-0.343,0.1-0.607,0.375-0.692,0.722
			s0.021,0.713,0.279,0.96l1.332,1.277l1.331,1.277c0.189,0.181,0.438,0.279,0.693,0.279c0.093,0,0.187-0.013,0.279-0.04
			c0.343-0.1,0.607-0.375,0.692-0.722l0.44-1.792l0.441-1.79c0.086-0.347-0.021-0.713-0.278-0.961
			C56.387,22.388,56.137,22.29,55.883,22.29L55.883,22.29z"/>
	</g>
	<g>
		<path fill="#21325D" d="M19.897,23.556c-0.128,0-0.254-0.049-0.349-0.141c-0.128-0.125-0.18-0.308-0.137-0.481l1.366-5.427
			c0.044-0.173,0.177-0.31,0.349-0.359c0.045-0.013,0.091-0.019,0.137-0.019c0.128,0,0.254,0.049,0.349,0.141l4.015,3.896
			c0.129,0.124,0.181,0.308,0.138,0.481c-0.044,0.173-0.177,0.31-0.349,0.359l-5.382,1.53C19.988,23.55,19.943,23.556,19.897,23.556
			z"/>
		<path fill="#FFFFFF" d="M21.263,17.63l2.007,1.949l2.009,1.947l-2.691,0.766l-2.692,0.765l0.683-2.713L21.263,17.63 M21.263,16.63
			c-0.091,0-0.183,0.012-0.273,0.038c-0.344,0.098-0.609,0.371-0.697,0.718l-0.684,2.714l-0.683,2.713
			c-0.087,0.346,0.017,0.713,0.273,0.962c0.189,0.184,0.44,0.282,0.696,0.282c0.091,0,0.183-0.013,0.273-0.038l2.692-0.765
			l2.691-0.766c0.344-0.098,0.609-0.371,0.696-0.718c0.087-0.346-0.017-0.713-0.274-0.962l-2.009-1.947l-2.006-1.948
			C21.771,16.728,21.52,16.63,21.263,16.63L21.263,16.63z"/>
	</g>
	<g>
		<path fill="#21325D" d="M15.437,91.744c-3.047,0-5.986-0.921-8.5-2.662c-3.281-2.273-5.48-5.688-6.192-9.616
			c-0.713-3.928,0.147-7.897,2.421-11.18l2.118-3.059c0.075-0.109,0.191-0.184,0.322-0.208c0.029-0.005,0.06-0.008,0.089-0.008
			c0.101,0,0.2,0.03,0.285,0.089l23.747,16.453c0.227,0.157,0.283,0.469,0.126,0.696l-2.12,3.061
			C24.942,89.338,20.345,91.744,15.437,91.744C15.437,91.744,15.438,91.744,15.437,91.744z"/>
		<path fill="#FFFFFF" d="M5.695,65.511l23.747,16.454l-2.12,3.06c-2.805,4.048-7.307,6.219-11.885,6.219
			c-2.838,0-5.706-0.835-8.215-2.573c-6.557-4.543-8.189-13.542-3.645-20.1L5.695,65.511 M5.695,64.511
			c-0.06,0-0.119,0.005-0.179,0.016c-0.261,0.047-0.492,0.197-0.643,0.415l-2.119,3.06c-2.349,3.391-3.238,7.494-2.502,11.553
			c0.736,4.059,3.009,7.589,6.4,9.938c2.598,1.8,5.635,2.751,8.784,2.751c5.072,0,9.823-2.486,12.707-6.65l2.12-3.06
			c0.315-0.454,0.202-1.077-0.252-1.391L6.264,64.689C6.096,64.572,5.897,64.511,5.695,64.511L5.695,64.511z"/>
	</g>
</g>
<g id="Ebene_2">
	<g>
		<g>
			<path fill="#22335D" d="M107.314,38.659h6.611v48.066h-6.545V51.749l0.528,2.116l-7.604,24.694h-4.099l-7.604-24.033l0.728-2.777
				v34.976h-6.744V38.659h6.843l8.827,28.165L107.314,38.659z"/>
		</g>
		<g>
			<path fill="#22335D" d="M122.057,84.774c-1.388-1.631-2.082-4.055-2.082-7.273c0-3.769,0.931-6.611,2.793-8.528
				c1.862-1.918,4.59-2.876,8.182-2.876h3.505l0.463,6.05h-3.736c-1.433,0-2.512,0.451-3.239,1.354
				c-0.728,0.904-1.091,2.237-1.091,4c0,1.169,0.275,2.045,0.826,2.629s1.366,0.876,2.446,0.876c1.344,0,2.369-0.375,3.074-1.124
				s1.059-1.852,1.059-3.306l0.628,3.008c-0.022,1.653-0.293,3.053-0.811,4.198c-0.518,1.146-1.272,2.006-2.264,2.579
				c-0.992,0.572-2.215,0.859-3.67,0.859C125.474,87.221,123.446,86.405,122.057,84.774z M134.257,61.865
				c0-1.146-0.31-2.033-0.926-2.661c-0.617-0.628-1.488-0.942-2.612-0.942c-0.97,0-1.719,0.314-2.247,0.942
				c-0.529,0.628-0.806,1.516-0.827,2.661h-6.975c0.021-3.195,0.92-5.67,2.694-7.422c1.773-1.752,4.27-2.628,7.487-2.628
				c2.182,0,4.044,0.392,5.587,1.174c1.542,0.782,2.722,1.929,3.537,3.438c0.814,1.51,1.223,3.322,1.223,5.438v24.859h-6.941V61.865
				z"/>
		</g>
		<g>
			<path fill="#22335D" d="M145.43,52.41h15.207v6.744H145.43V52.41z M150.752,84.609c-1.366-1.521-2.049-3.791-2.049-6.811V42.427
				h7.206v34.71c0,0.859,0.198,1.532,0.596,2.017c0.396,0.485,0.958,0.728,1.686,0.728h2.446v7.008h-3.438
				C154.267,86.889,152.119,86.13,150.752,84.609z"/>
		</g>
		<g>
			<path fill="#22335D" d="M170.042,86.08c-1.576-0.761-2.783-1.879-3.62-3.355c-0.838-1.477-1.256-3.262-1.256-5.355V62.162
				c0-2.182,0.418-4.049,1.256-5.603c0.837-1.554,2.044-2.732,3.62-3.537c1.575-0.805,3.487-1.207,5.735-1.207
				c2.226,0,4.138,0.408,5.735,1.223c1.598,0.816,2.815,2,3.653,3.555c0.837,1.554,1.256,3.433,1.256,5.636v2.017l-7.141,0.033
				v-1.686c0-1.345-0.297-2.375-0.893-3.092c-0.595-0.716-1.433-1.074-2.513-1.074c-1.079,0-1.923,0.354-2.528,1.058
				c-0.606,0.706-0.909,1.709-0.909,3.009v14.546c0,1.146,0.298,2.027,0.893,2.645s1.443,0.926,2.545,0.926
				c1.08,0,1.918-0.325,2.513-0.976c0.596-0.65,0.893-1.57,0.893-2.761v-1.587l7.207,0.066v1.885c0,2.094-0.425,3.884-1.273,5.372
				c-0.849,1.487-2.071,2.628-3.669,3.421c-1.599,0.794-3.521,1.19-5.769,1.19S171.617,86.84,170.042,86.08z"/>
		</g>
		<g>
			<path fill="#22335D" d="M191.381,38.659h7.272v48.066h-7.272V38.659z M205.463,62.791c0-1.41-0.275-2.474-0.826-3.19
				c-0.551-0.716-1.411-1.074-2.578-1.074c-1.146,0-2,0.358-2.563,1.074c-0.562,0.717-0.843,1.791-0.843,3.223l-0.661-4.528
				c0.705-2.094,1.724-3.697,3.058-4.811c1.333-1.112,2.849-1.669,4.546-1.669c2.291,0,4.055,0.771,5.289,2.314
				c1.233,1.542,1.852,3.769,1.852,6.678v25.917h-7.273V62.791z"/>
		</g>
		<g>
			<path fill="#22335D" d="M219.612,52.41h7.306v34.314h-7.306V52.41z M233.761,62.724c0-1.433-0.281-2.501-0.843-3.207
				c-0.563-0.705-1.405-1.058-2.529-1.058c-1.146,0-2.012,0.358-2.595,1.074c-0.584,0.717-0.876,1.802-0.876,3.257l-0.694-4.596
				c0.749-2.093,1.796-3.68,3.141-4.76c1.344-1.08,2.887-1.62,4.628-1.62c1.477,0,2.749,0.33,3.818,0.992
				c1.068,0.661,1.873,1.631,2.413,2.908c0.54,1.279,0.81,2.854,0.81,4.728v26.281h-7.272V62.724z M247.876,62.724
				c0-1.433-0.286-2.501-0.859-3.207c-0.573-0.705-1.443-1.058-2.611-1.058c-1.124,0-1.967,0.358-2.529,1.074
				c-0.562,0.717-0.843,1.802-0.843,3.257l-0.76-4.563c0.727-2.115,1.769-3.713,3.124-4.793c1.354-1.08,2.893-1.62,4.611-1.62
				c1.521,0,2.814,0.347,3.884,1.041s1.885,1.714,2.446,3.059c0.563,1.344,0.844,2.975,0.844,4.893v25.917h-7.307V62.724z"/>
		</g>
		<g>
			<path fill="#22335D" d="M263.644,84.774c-1.388-1.631-2.082-4.055-2.082-7.273c0-3.769,0.931-6.611,2.793-8.528
				c1.862-1.918,4.59-2.876,8.182-2.876h3.505l0.463,6.05h-3.736c-1.433,0-2.512,0.451-3.239,1.354
				c-0.728,0.904-1.091,2.237-1.091,4c0,1.169,0.275,2.045,0.826,2.629s1.366,0.876,2.446,0.876c1.344,0,2.369-0.375,3.074-1.124
				s1.059-1.852,1.059-3.306l0.628,3.008c-0.022,1.653-0.293,3.053-0.811,4.198c-0.518,1.146-1.272,2.006-2.264,2.579
				c-0.992,0.572-2.215,0.859-3.67,0.859C267.06,87.221,265.033,86.405,263.644,84.774z M275.844,61.865
				c0-1.146-0.31-2.033-0.926-2.661c-0.617-0.628-1.488-0.942-2.612-0.942c-0.97,0-1.719,0.314-2.247,0.942
				c-0.529,0.628-0.806,1.516-0.827,2.661h-6.975c0.021-3.195,0.92-5.67,2.694-7.422c1.773-1.752,4.27-2.628,7.487-2.628
				c2.182,0,4.044,0.392,5.587,1.174c1.542,0.782,2.722,1.929,3.537,3.438c0.814,1.51,1.223,3.322,1.223,5.438v24.859h-6.941V61.865
				z"/>
		</g>
		<g>
			<path fill="#22335D" d="M289.662,38.659h7.206v48.066h-7.206V38.659z M293.827,72.972l12-20.562h7.438l-19.107,30.149
				L293.827,72.972z M299.381,69.138l4.43-5.091l10.81,22.678h-7.769L299.381,69.138z"/>
		</g>
		<g>
			<path fill="#22335D" d="M321.1,85.931c-1.587-0.86-2.806-2.104-3.653-3.736c-0.849-1.63-1.272-3.614-1.272-5.95V63.419
				c0-2.446,0.413-4.54,1.239-6.281c0.826-1.74,2.017-3.063,3.57-3.967c1.554-0.903,3.422-1.355,5.604-1.355
				c2.203,0,4.094,0.43,5.669,1.289c1.576,0.859,2.777,2.11,3.604,3.752c0.826,1.643,1.24,3.643,1.24,6v9.389h-15.405v-5.62h8.43
				v-3.867c0-1.41-0.309-2.507-0.926-3.289s-1.487-1.174-2.611-1.174c-1.103,0-1.95,0.413-2.546,1.239
				c-0.595,0.827-0.893,2-0.893,3.521v13.422c0,1.322,0.319,2.342,0.959,3.058c0.639,0.717,1.554,1.075,2.744,1.075
				c1.079,0,1.917-0.281,2.512-0.844c0.596-0.562,0.893-1.35,0.893-2.363v-0.694l6.942,0.033v0.595c0,3.152-0.904,5.587-2.711,7.306
				c-1.807,1.72-4.353,2.579-7.636,2.579C324.604,87.221,322.686,86.791,321.1,85.931z"/>
		</g>
		<g>
			<path fill="#22335D" d="M343.382,52.41h7.272v34.314h-7.272V52.41z M359.15,59.286c0,0-0.133,0-0.397,0c-0.264,0-0.573,0-0.925,0
				c-2.248,0-4,0.606-5.257,1.818c-1.256,1.213-1.896,2.865-1.917,4.959l-0.694-7.67c1.035-2.071,2.386-3.686,4.05-4.843
				c1.663-1.157,3.487-1.735,5.471-1.735v7.438C359.26,59.275,359.15,59.286,359.15,59.286z"/>
		</g>
	</g>
	<g>
	</g>
	<g>
	</g>
	<g>
	</g>
	<g>
	</g>
	<g>
	</g>
	<g>
	</g>
</g>
</svg>
